<?xml version="1.0" encoding="utf-8"?>
<!-- Generator: Adobe Illustrator 22.0.1, SVG Export Plug-In . SVG Version: 6.00 Build 0)  -->
<svg version="1.1"
	 id="Layer_1" inkscape:version="0.92.2 (5c3e80d, 2017-08-06)" sodipodi:docname="ABC_1975.svg" xmlns:cc="http://creativecommons.org/ns#" xmlns:dc="http://purl.org/dc/elements/1.1/" xmlns:inkscape="http://www.inkscape.org/namespaces/inkscape" xmlns:rdf="http://www.w3.org/1999/02/22-rdf-syntax-ns#" xmlns:sodipodi="http://sodipodi.sourceforge.net/DTD/sodipodi-0.dtd" xmlns:svg="http://www.w3.org/2000/svg"
	 xmlns="http://www.w3.org/2000/svg" xmlns:xlink="http://www.w3.org/1999/xlink" x="0px" y="0px" viewBox="0 0 1039.2 254.6"
	 style="enable-background:new 0 0 1039.2 254.6;" xml:space="preserve">
<sodipodi:namedview  bordercolor="#666666" borderopacity="1" gridtolerance="10" guidetolerance="10" id="namedview6574" inkscape:current-layer="Layer_1" inkscape:cx="411.57757" inkscape:cy="276.3591" inkscape:pageopacity="0" inkscape:pageshadow="2" inkscape:window-height="706" inkscape:window-maximized="1" inkscape:window-width="1024" inkscape:window-x="-8" inkscape:window-y="-8" inkscape:zoom="0.37542406" objecttolerance="10" pagecolor="#ffffff" showgrid="false">
	</sodipodi:namedview>
<path id="path6569" inkscape:connector-curvature="0" d="M49,0.2C61.8,0,77.5,4.8,88,17.9c4.8,4.6,13.6,26.8,13.6,26.8l52.6,139.6
	c6.8,16.8,27.1,18,33.1,1.3l16.3-44l27.9,73.4c-13.6,24.7-26.7,30.8-42.2,36.5c-18.1,5.7-39.8,3.8-55.4-5.9
	c-5.2-3.3-18.7-12.1-27.9-34.4L50.6,56.4v140.9l20.7-59.5l26.6,74.3c-3.9,17.1-16.2,31.3-30.6,38c-15.7,7.4-34.4,4.8-48.6-4.2
	C4.6,235.5,0.6,223.1,0,201.1L0.2,48.7C1.8,23.3,18,9.5,32.3,3.3C38.8,1,41.5,0.4,49,0.2z"/>
<path id="path6571" inkscape:connector-curvature="0" d="M291.2,254.3c-12.9,0.2-28.5-4.6-39-17.6c-4.8-4.6-13.5-26.8-13.5-26.8
	L186,70.3c-6.8-16.8-27.1-18-33.1-1.3l-16.3,44l-27.9-73.4C122.3,14.9,135.4,8.8,151,3.2c18.1-5.7,39.8-3.8,55.4,5.9
	c5.2,3.4,18.7,12.2,27.9,34.4l55.4,154.7V57.3l-20.7,59.5l-26.6-74.3c3.9-17.1,16.2-31.3,30.6-38c15.7-7.4,34.4-4.8,48.6,4.2
	c14.1,10.5,18.1,22.9,18.7,44.8L340,205.9c-1.6,25.4-17.8,39.2-32.1,45.4C301.4,253.6,298.6,254.2,291.2,254.3z"/>
<g>
	<path d="M527.8,4.6l82.5,245.7h-60.4L532.7,197h-77.6l-17.2,53.4h-60L459.7,4.6H527.8z M470.6,147.1h46.3l-21.4-64.6H492
		L470.6,147.1z"/>
	<path d="M723.6,4.6c51.9,0,80.7,18.6,80.7,61.8c0,24.9-10.5,45.3-29.8,54.1c22.1,7.4,36.5,26,36.5,56.9c0,46.7-31.2,73-89.2,73h-99
		V4.6H723.6z M680.8,97.6h40.4c16.1,0,25.6-8.1,25.6-23.9c0-14.7-8.8-21.4-24.6-21.4h-41.4V97.6z M680.8,200.5h41.4
		c19,0,30.5-8.4,30.9-26c0.7-18.6-12.3-26.7-31.6-26.7h-40.7V200.5z"/>
	<path d="M990.4,95.2c-3.9-21.8-23.2-43.5-51.9-43.5c-31.9,0-57.6,22.1-57.6,74.4c0,40.7,17.9,76.2,56.9,76.2
		c24.6,0,44.2-15.1,51.2-39.7l49.5,21.8c-13.7,37.9-53.4,70.9-108.8,68.1c-68.1-3.2-106.4-51.2-106.4-124.6
		c0-84.6,50.5-122.8,109.2-125c57.6-2.1,95.5,30.9,106.7,69.1C1038.5,72.3,991.1,94.5,990.4,95.2z"/>
</g>
</svg>
