<?xml version="1.0" encoding="utf-8"?>
<!-- Generator: Adobe Illustrator 24.0.1, SVG Export Plug-In . SVG Version: 6.00 Build 0)  -->
<svg version="1.1" id="Layer_1" xmlns="http://www.w3.org/2000/svg" xmlns:xlink="http://www.w3.org/1999/xlink" x="0px" y="0px"
	 viewBox="0 0 577.3 433" style="enable-background:new 0 0 577.3 433;" xml:space="preserve">
<style type="text/css">
	.st0{fill-rule:evenodd;clip-rule:evenodd;fill:#0A1633;}
</style>
<title>age-logo-tn</title>
<desc>Created with Sketch.</desc>
<g id="age-logo-tn">
	<g id="Logo-_x2F_-Metro-_x2F_-Age" transform="translate(34.000000, 212.000000)">
		<g id="The-Age-logo-Copy">
			<path id="Fill-42" class="st0" d="M304.3-9.9c0.1,0,0.3,0.1,0.4,0.2C304.7-9.8,304.6-9.8,304.3-9.9"/>
			<path id="Fill-44" class="st0" d="M262.4-0.8c3.6,0.8,6.7,2.3,8.8,4.4c2.5,2.5,3.7,5.8,3.7,9.8v2.1c0,11.1-9.5,16.1-18.8,16.1
				c-6,0-11.2-1.9-14.6-5.3c-2.8-2.8-4.3-6.5-4.3-10.8v-2.1c0-4,1.3-7.3,3.7-9.8c2.1-2.1,5.2-3.7,8.9-4.4l-0.2-0.8
				c-3.9,0.8-7.1,2.4-9.4,4.7c-2.6,2.6-4,6.1-4,10.4v2.1c0,4.5,1.6,8.5,4.5,11.4c3.6,3.6,9,5.6,15.2,5.6c9.8,0,19.7-5.2,19.7-16.9
				v-2.1c0-4.2-1.3-7.7-4-10.4c-2.2-2.2-5.4-3.8-9.2-4.6L262.4-0.8z"/>
			<path id="Fill-46" class="st0" d="M265-6.4c0.5,0,0.9-0.4,0.9-0.9c0-0.5-0.4-0.9-0.9-0.9s-0.9,0.4-0.9,0.9
				C264.1-6.8,264.5-6.4,265-6.4"/>
			<path id="Fill-48" class="st0" d="M263.9-9.3c-0.4-0.3-1-0.3-1.3,0.1c-0.1,0.1-0.2,0.4-0.2,0.5L262.3-8c-0.3-0.2-0.6-0.4-1-0.6
				l0.6-0.5c0,0,0.3-0.3,0.3-0.4c0.2-0.6-0.1-1.1-0.6-1.3c-0.5-0.2-1.1,0.1-1.3,0.7c-0.1,0.1,0,0.5,0,0.5l0.2,0.7
				c-0.4-0.1-0.8-0.2-1.3-0.3l0.5-0.6c0,0,0.3-0.3,0.3-0.5c0.1-0.7-0.3-1.2-0.9-1.3c-0.6-0.1-1.2,0.3-1.3,1c0,0.2,0.1,0.6,0.1,0.6
				l0.3,0.8c-0.4-0.1-0.9-0.1-1.3-0.1c0.4-0.3,0.7-0.8,0.7-1.3c0-0.9-0.7-1.8-1.5-1.8c-0.8,0-1.5,0.9-1.5,1.8c0,0.6,0.3,1.1,0.7,1.3
				c-0.5,0-0.9,0.1-1.3,0.1l0.3-0.8c0,0,0.1-0.4,0.1-0.6c-0.1-0.7-0.7-1.1-1.3-1c-0.6,0.1-1,0.7-0.9,1.3c0,0.2,0.3,0.5,0.3,0.5
				l0.5,0.7c-0.5,0.1-0.9,0.2-1.3,0.3l0.2-0.7c0,0,0.1-0.4,0-0.5c-0.2-0.6-0.8-0.9-1.3-0.7c-0.5,0.2-0.8,0.7-0.6,1.3
				c0,0.2,0.3,0.4,0.3,0.4l0.6,0.5c-0.4,0.2-0.7,0.4-1,0.6l-0.1-0.7c0,0-0.1-0.3-0.2-0.5c-0.4-0.4-0.9-0.5-1.3-0.1
				c-0.4,0.3-0.4,0.9-0.1,1.3c0.1,0.1,0.4,0.2,0.4,0.2l0.7,0.2c-0.1,0.1-0.1,0.2-0.2,0.2c1.8-0.3,4.5-0.7,7-0.7c2.9,0,5.1,0.4,7,0.8
				c-0.1-0.1-0.2-0.3-0.3-0.4l0.7-0.2c0,0,0.3-0.1,0.4-0.2C264.3-8.4,264.3-8.9,263.9-9.3"/>
			<path id="Fill-50" class="st0" d="M247.2-6.4c-0.5,0-0.9-0.4-0.9-0.9c0-0.5,0.4-0.9,0.9-0.9s0.9,0.4,0.9,0.9
				C248.1-6.8,247.7-6.4,247.2-6.4"/>
			<path id="Fill-52" class="st0" d="M256.1-13.2c0.7,0,1.4,0.5,1.7,1.1v-2.1l-1,0.2L257-15h-1.9l0.2,0.9l-1-0.2v2.1
				C254.7-12.8,255.4-13.2,256.1-13.2"/>
			<path id="Fill-54" class="st0" d="M264.4-5.3c0-0.3-0.3-0.5-0.8-0.8l-0.1,1.1l-0.9-0.6L262.2-4l1.1,0c-0.2,0.5-2.1,1.7-3-0.1
				c-0.3-0.7,0.3-1,0.5-0.9c0.4,0.1,0.5,0.4,0.4,0.5c0.9-0.2,1.1-1.2-0.3-1.6c-0.6-0.2-0.6-0.5-0.7-0.8v0c-0.1,0.3-0.2,0.7-0.8,0.7
				C258-6.1,258-5,258.9-4.7c-0.1-0.2,0.1-0.4,0.4-0.5c0.2,0,0.7,0.4,0.3,1c-0.3,0.5-2.4,1.5-3.2-1.1c0.6,0,1.1,0.1,1.4,0.7v-1.7
				l-1,0.2l0.2-0.9h-1.9l0.2,0.9l-1-0.2v1.7c0.3-0.5,0.8-0.6,1.4-0.7c-0.8,2.5-2.9,1.6-3.2,1.1c-0.4-0.6,0.1-1,0.3-1
				c0.4,0,0.5,0.3,0.4,0.5c0.9-0.3,0.9-1.4-0.5-1.5c-0.6,0-0.6-0.4-0.8-0.7l0,0c-0.1,0.3-0.1,0.7-0.7,0.8c-1.4,0.4-1.2,1.4-0.3,1.6
				c-0.1-0.2,0-0.4,0.4-0.5c0.2-0.1,0.8,0.2,0.5,0.9c-0.9,1.8-2.8,0.6-3,0.1l1.1,0l-0.4-1.5l-0.9,0.6L248.5-6
				c-0.5,0.2-0.7,0.5-0.7,0.7l0.7,1.5c0.2,0.5,0.3,0.7,0.1,1.1c0.6,0.3,0.7,0.9,0.4,1.6c0,0.8,3.1,1.5,7,1.5h0c3.9,0,7-0.7,7-1.5
				c-0.3-0.7-0.2-1.2,0.4-1.6c-0.2-0.5,0-0.7,0.1-1.1L264.4-5.3z M256.1-0.2c-3.1,0-5.7-0.4-5.7-0.9s2.5-0.9,5.7-0.9
				s5.7,0.4,5.7,0.9S259.2-0.2,256.1-0.2L256.1-0.2z"/>
			<path id="Fill-56" class="st0" d="M202-6.8c0.4,0,0.7-0.3,0.7-0.7c0-0.4-0.3-0.7-0.7-0.7c-0.4,0-0.7,0.3-0.7,0.7
				C201.2-7.2,201.5-6.8,202-6.8"/>
			<path id="Fill-58" class="st0" d="M201-9.2c-0.3-0.3-0.8-0.2-1.1,0.1c-0.1,0.1-0.1,0.4-0.1,0.4l-0.1,0.6
				c-0.2-0.2-0.5-0.3-0.8-0.5l0.5-0.4c0,0,0.2-0.2,0.3-0.3c0.2-0.5-0.1-1-0.5-1.1c-0.4-0.2-0.9,0.1-1.1,0.6c0,0.1,0,0.4,0,0.4
				l0.1,0.6c-0.3-0.1-0.7-0.2-1.1-0.3l0.4-0.5c0,0,0.2-0.3,0.2-0.4c0.1-0.6-0.3-1-0.8-1.1c-0.5-0.1-1,0.3-1.1,0.8
				c0,0.1,0.1,0.5,0.1,0.5l0.3,0.6c-0.4,0-0.7-0.1-1.1-0.1c0.3-0.2,0.6-0.6,0.6-1.1c0-0.7-0.6-1.5-1.3-1.5s-1.3,0.7-1.3,1.5
				c0,0.5,0.2,0.9,0.6,1.1c-0.4,0-0.8,0.1-1.1,0.1l0.3-0.6c0,0,0.1-0.3,0.1-0.5c-0.1-0.6-0.6-0.9-1.1-0.8c-0.5,0.1-0.9,0.5-0.8,1.1
				c0,0.1,0.2,0.4,0.2,0.4l0.4,0.5c-0.4,0.1-0.7,0.2-1.1,0.3l0.1-0.6c0,0,0.1-0.3,0-0.4c-0.2-0.5-0.6-0.7-1.1-0.6
				c-0.4,0.1-0.7,0.6-0.5,1.1c0,0.1,0.3,0.3,0.3,0.3l0.5,0.4c-0.3,0.1-0.6,0.3-0.8,0.5l-0.1-0.6c0,0-0.1-0.3-0.1-0.4
				c-0.3-0.3-0.8-0.4-1.1-0.1c-0.3,0.3-0.4,0.7-0.1,1.1c0.1,0.1,0.3,0.2,0.3,0.2l0.6,0.2c-0.1,0.1-0.1,0.1-0.2,0.2
				c1.5-0.3,3.7-0.6,5.8-0.6c2.4,0,4.2,0.3,5.8,0.7c-0.1-0.1-0.1-0.2-0.2-0.3l0.6-0.2c0,0,0.3-0.1,0.3-0.2
				C201.4-8.5,201.4-9,201-9.2"/>
			<path id="Fill-60" class="st0" d="M187.2-6.8c-0.4,0-0.7-0.3-0.7-0.7c0-0.4,0.3-0.7,0.7-0.7s0.7,0.3,0.7,0.7
				C187.9-7.2,187.6-6.8,187.2-6.8"/>
			<path id="Fill-62" class="st0" d="M194.6-12.5c0.6,0,1.1,0.4,1.4,0.9v-1.7l-0.9,0.1l0.2-0.8h-1.5l0.2,0.8l-0.9-0.1v1.7
				C193.4-12.1,194-12.5,194.6-12.5"/>
			<path id="Fill-64" class="st0" d="M201.4-5.9c0-0.2-0.2-0.4-0.7-0.6l-0.1,0.9L200-6.1l-0.4,1.2l0.9,0c-0.2,0.4-1.8,1.4-2.5-0.1
				c-0.2-0.5,0.2-0.8,0.4-0.7c0.3,0.1,0.4,0.3,0.3,0.4c0.8-0.1,0.9-1-0.3-1.3C198.1-6.7,198-7,198-7.2v0c-0.1,0.2-0.1,0.6-0.6,0.6
				c-1.2,0.1-1.2,1-0.4,1.3c0-0.1,0.1-0.4,0.4-0.4c0.2,0,0.6,0.3,0.2,0.8c-0.3,0.4-2,1.2-2.7-0.9c0.5,0,0.9,0.1,1.2,0.5v-1.4
				l-0.9,0.1l0.2-0.8h-1.5l0.2,0.8l-0.9-0.1v1.4c0.2-0.4,0.7-0.5,1.2-0.5c-0.6,2.1-2.4,1.3-2.7,0.9c-0.3-0.5,0.1-0.8,0.3-0.8
				c0.3,0,0.4,0.2,0.4,0.4c0.7-0.3,0.8-1.1-0.4-1.3c-0.5,0-0.5-0.4-0.6-0.6v0c-0.1,0.3-0.1,0.6-0.6,0.7c-1.2,0.3-1,1.2-0.3,1.3
				c-0.1-0.1,0-0.4,0.3-0.4c0.2-0.1,0.7,0.2,0.4,0.7c-0.7,1.5-2.3,0.5-2.5,0.1l0.9,0l-0.3-1.2l-0.7,0.5l-0.1-0.9
				c-0.4,0.2-0.6,0.4-0.6,0.6l0.6,1.2c0.1,0.4,0.2,0.5,0.1,0.9c0.5,0.3,1.5,1.3,1.5,1.3c0,0.4,0.9,0.9,0.9,0.9
				c0.5-1.7,2.6-1.5,3.9-1.5h1.2c1.7,0,3,0.3,2.9,1.5c0.9-0.2,0.7-0.7,1.1-1c0.5-0.3,0.2-0.8,0.7-1.1c-0.1-0.4,0-0.5,0.1-0.9
				L201.4-5.9z"/>
			<path id="Fill-66" class="st0" d="M203.7,22.7c1.3,0.3,5.1,0.3,6,0.2c0.6-0.3,1.5-1.9,1.9-3.1c0.1-0.3-0.4-1-0.4-1
				c0,0.3,0.2,0.6,0.1,1c-0.2,0.4-0.4,1.4-1.7,2.9L203.7,22.7z"/>
			<path id="Fill-68" class="st0" d="M187.1,23.6c1.1,0,2.1,0.2,2.6,1.1c0.4,0.7,0.2,1.8-0.8,2.4c-0.5,0.3-1.1,0.4-1.7,0.4h-2.6
				v-0.1c0.4,0,0.6-0.2,0.6-0.5v-2.7c0-0.3-0.2-0.5-0.6-0.5v-0.1H187.1z M186.6,27c0,0.3,0,0.4,0.3,0.4c1.1,0,1.3-0.5,1.5-0.8
				c0.3-0.7,0.3-2-0.3-2.5c-0.4-0.3-0.7-0.3-1.2-0.3c-0.3,0-0.3,0-0.3,0.4V27z"/>
			<path id="Fill-70" class="st0" d="M192.5,27.6c0,0.3,0.2,0.5,0.7,0.6v0.1l-2.7-0.5v-0.1c0.5,0.1,0.7-0.1,0.7-0.4l0-2.6
				c0-0.3-0.2-0.5-0.7-0.6V24l2.7,0.5l0,0.1c-0.5-0.1-0.7,0.1-0.7,0.4L192.5,27.6z"/>
			<path id="Fill-72" class="st0" d="M223.7,27.2c0,0.3,0.2,0.5,0.6,0.6v0.1l-2.5-0.4v-0.1c0.4,0.1,0.6-0.1,0.6-0.3v-2.9
				c-0.2,0-0.7-0.2-1.1,0.1c-0.4,0.2-0.4,0.5-0.4,0.6l-0.2,0v-1.1l4.7,0.8v1.1l-0.2,0c0-0.1,0-0.4-0.4-0.7c-0.4-0.4-0.9-0.4-1.1-0.5
				V27.2z"/>
			<path id="Fill-74" class="st0" d="M204,29.3c0,1-0.9,1.2-2.2,1c-1.4-0.3-1.9-1.1-1.9-1.5v-2.3c0-0.3-0.2-0.5-0.7-0.6v-0.1
				l2.6,0.4v0.1c-0.4-0.1-0.7,0.1-0.7,0.4v2.1c0,0.4,0.1,0.9,0.7,1.2c0.5,0.2,1.8,0.4,1.8-0.7v-2.1c0-0.3-0.2-0.5-0.6-0.6v-0.1
				l1.6,0.3v0.1c-0.4-0.1-0.6,0.1-0.6,0.4V29.3z"/>
			<path id="Fill-76" class="st0" d="M195.7,28.3c0,0.3,0,0.4,0.4,0.4c1.1,0.2,1.7,0.1,2.2-0.6l0.2,0l-0.4,1.1l-4.3-0.7l0-0.1
				c0.4,0.1,0.6-0.1,0.6-0.4l0.1-2.6c0-0.3-0.2-0.5-0.6-0.6l0-0.1l4.3,0.7l0,1.1l-0.2,0c-0.1-0.2-0.1-0.9-1.3-1.2l-0.7-0.1
				c-0.3-0.1-0.3,0-0.3,0.3l0,1.2c0.9,0.1,1,0,1.3-0.6l0.2,0l-0.1,1.8l-0.2,0c-0.2-0.7-0.3-0.8-1.2-1L195.7,28.3z"/>
			<path id="Fill-78" class="st0" d="M217.2,26.5c0,0.3,0,0.4,0.4,0.4c1.1,0.1,1.7,0,2.2-0.8l0.2,0l-0.4,1.1l-4.4-0.3l0-0.1
				c0.4,0,0.6-0.1,0.6-0.4l0.1-2.6c0-0.3-0.2-0.5-0.6-0.5l0-0.1l4.3,0.3l-0.1,1.1l-0.1,0c-0.1-0.2-0.1-0.9-1.3-1l-0.7-0.1
				c-0.3,0-0.3,0-0.3,0.3l-0.1,1.3c0.9,0,1,0,1.3-0.7l0.2,0l-0.1,1.8l-0.2,0c-0.2-0.7-0.3-0.8-1.2-0.9L217.2,26.5z"/>
			<path id="Fill-80" class="st0" d="M319.3,24.9c0.1,0.1,0.2,0.1,0.4,0.2C319.6,25,319.5,24.9,319.3,24.9"/>
			<path id="Fill-82" class="st0" d="M300.3,26.8l-3.1-2.7v2.2c0,0.3,0.2,0.4,0.6,0.4v0.1h-1.4v-0.1c0.4,0,0.6-0.2,0.6-0.4v-2.4
				l-0.3-0.2c-0.1-0.1-0.2-0.2-0.4-0.2v-0.1h1.5l2.5,2.2v-1.7c0-0.3-0.2-0.4-0.6-0.4v-0.1h1.4v0.1c-0.4,0-0.6,0.2-0.6,0.4v3H300.3z"
				/>
			<path id="Fill-84" class="st0" d="M295.1,26.7c-0.5,0.3-1,0.4-1.5,0.5c-0.5,0-1,0-1.5-0.2c-0.6-0.3-1-0.8-1-1.5
				c0-0.6,0.4-1.3,1-1.7c0.5-0.3,1-0.4,1.5-0.5c0.5,0,1,0,1.5,0.2c0.6,0.3,1,0.8,1,1.5C296.1,25.7,295.7,26.4,295.1,26.7 M294,26.9
				c0.3-0.1,0.5-0.4,0.6-0.7c0.1-0.2,0.2-0.6,0.2-1c0-0.4-0.1-0.8-0.2-1c-0.2-0.3-0.4-0.5-0.6-0.6c-0.2,0-0.3-0.1-0.4,0
				c-0.1,0-0.3,0.1-0.4,0.1c-0.3,0.1-0.5,0.3-0.6,0.7c-0.1,0.2-0.2,0.6-0.2,1c0,0.4,0.1,0.8,0.2,1c0.2,0.3,0.4,0.5,0.6,0.6
				c0.2,0,0.3,0.1,0.4,0C293.7,27,293.9,27,294,26.9"/>
			<path id="Fill-86" class="st0" d="M290.6,27c0,0.3,0.2,0.4,0.6,0.3v0.1l-2.3,0.4v-0.1c0.4-0.1,0.6-0.3,0.6-0.5l0-2.6l-1.8,3.4
				l-0.2,0l-1.8-2.8l0,2.6c0,0.3,0.2,0.4,0.6,0.3v0.1l-1.4,0.3v-0.1c0.4-0.1,0.6-0.3,0.6-0.5l0-2.4c0-0.4-0.2-0.4-0.6-0.3V25
				l1.8-0.3l1.4,2.2l1.4-2.7l1.8-0.3V24c-0.4,0.1-0.6,0.3-0.6,0.5L290.6,27z"/>
			<path id="Fill-88" class="st0" d="M336.3,25.9c0,0.3,0.2,0.5,0.7,0.5v0.1h-2.6v-0.1c0.5,0,0.7-0.2,0.7-0.5v-2.5
				c0-0.3-0.2-0.5-0.7-0.5v-0.1h2.6v0.1c-0.5,0-0.7,0.2-0.7,0.5V25.9z"/>
			<path id="Fill-90" class="st0" d="M326.4,25.5l-0.2,0l0.1,1.1c0,0.3,0.3,0.4,0.6,0.4l0,0.1l-2.4,0.3l0-0.1
				c0.4-0.1,0.6-0.3,0.6-0.5l-0.2-2.5c0-0.3-0.3-0.4-0.6-0.4l0-0.1l2.4-0.3c0.6-0.1,1.3-0.1,1.8,0.2c0.3,0.2,0.5,0.6,0.3,1
				c-0.2,0.3-0.6,0.5-1,0.6l1.5,1.3c0.2,0.2,0.3,0.2,0.4,0.1l0,0.1l-1.5,0.2L326.4,25.5z M326.2,25.4c0.4-0.1,1.1-0.1,1.3-0.6
				c0.1-0.3,0-0.7-0.1-0.8c-0.2-0.2-0.4-0.3-1-0.2c-0.1,0-0.3,0.1-0.3,0.3L326.2,25.4z"/>
			<path id="Fill-92" class="st0" d="M333.1,26.3c-0.5,0.3-0.9,0.4-1.4,0.5c-0.5,0-0.9,0-1.4-0.2c-0.6-0.3-1-0.8-1-1.5
				c0-0.6,0.4-1.3,1-1.7c0.4-0.3,0.9-0.4,1.4-0.5c0.5,0,0.9,0,1.4,0.2c0.6,0.3,1,0.8,1,1.5C334.1,25.3,333.8,25.9,333.1,26.3
				 M332.2,26.5c0.3-0.1,0.5-0.4,0.6-0.7c0.1-0.2,0.2-0.6,0.2-1c0-0.4-0.1-0.8-0.2-1c-0.2-0.3-0.4-0.5-0.6-0.6c-0.1,0-0.3-0.1-0.4,0
				c-0.1,0-0.3,0-0.4,0.1c-0.3,0.1-0.5,0.3-0.6,0.7c-0.1,0.2-0.2,0.6-0.2,1c0,0.4,0.1,0.8,0.2,1c0.2,0.3,0.4,0.5,0.6,0.6
				c0.1,0,0.3,0.1,0.4,0C331.9,26.6,332,26.6,332.2,26.5"/>
			<path id="Fill-94" class="st0" d="M340.3,26.3c0,0.3,0.2,0.5,0.6,0.5v0.1l-2.3-0.3v-0.1c0.4,0,0.6-0.1,0.6-0.4v-2.9
				c-0.2,0-0.6-0.1-1,0.1c-0.4,0.2-0.3,0.5-0.4,0.6l-0.2,0v-1.1l4.3,0.5v1.1l-0.2,0c0-0.1,0-0.4-0.4-0.7c-0.4-0.4-0.9-0.3-1-0.4
				V26.3z"/>
			<path id="Fill-96" class="st0" d="M310.6,8.5c0.3,0.5,0.1,1-0.4,1.4c0,0,0,0,0,0.1c1.5,0.6,3.5,1.6,5.6,2.8
				c2.1,1.2,3.9,2.5,5.1,3.6c0,0,0,0,0-0.1c0-0.6,0.4-1,1-1c0.1-0.4,0.3-0.5,0.6-0.8l1.2-0.8c0.1-0.2,0-0.5-0.3-0.9l-0.6,0.8
				l-0.4-0.8l-1,1l0.8,0.5c-0.4,0.3-2.4,0.3-2.2-1.4c0.1-0.6,0.7-0.6,0.8-0.4c0.2,0.2,0.2,0.5,0.1,0.6c0.8,0.3,1.4-0.4,0.5-1.3
				c-0.4-0.4-0.3-0.7-0.2-1l0,0c-0.2,0.2-0.4,0.4-0.9,0.2c-1.2-0.6-1.6,0.3-1.1,0.9c0-0.2,0.3-0.3,0.6-0.2c0.2,0.1,0.4,0.6-0.2,0.9
				c-0.5,0.3-2.5,0-2-2.3c0.4,0.3,0.8,0.6,0.8,1.1l0.8-1.3l-0.9-0.3l0.6-0.6l-1.4-0.9l-0.3,0.8l-0.7-0.6l-0.8,1.3
				c0.5-0.3,0.9-0.1,1.4,0.1c-1.8,1.6-2.9-0.1-2.9-0.7c0-0.6,0.5-0.7,0.7-0.6c0.3,0.2,0.2,0.5,0.1,0.6c0.8,0.2,1.3-0.6,0.3-1.4
				c-0.4-0.3-0.3-0.6-0.3-0.9l0,0c-0.2,0.2-0.4,0.5-0.9,0.3c-1.3-0.4-1.6,0.5-1,1.1c0-0.2,0.2-0.3,0.5-0.2c0.2,0,0.5,0.5,0,0.9
				c-1.5,1-2.4-0.9-2.3-1.3l0.8,0.5l0.4-1.3l-0.9,0l0.4-0.9c-0.5,0-0.8,0-0.9,0.2L311,7.6C310.9,8,310.9,8.2,310.6,8.5"/>
			<path id="Fill-98" class="st0" d="M294,19.5c0.8-2.2,1.7-4.1,2.1-4.7c0.1-0.2,0.1-0.5-0.2-0.7c-0.2-0.2-0.5-0.1-0.7,0.2
				c-0.4,0.7-1.4,2.6-2.2,4.9c-0.1,0.3,0,0.6,0.3,0.6C293.6,19.9,293.9,19.7,294,19.5"/>
			<path id="Fill-100" class="st0" d="M297.1,13.2c1-1.8,3.2-3.6,4-4c0.3-0.1,0.4-0.4,0.2-0.7c-0.1-0.3-0.4-0.4-0.7-0.2
				c-1,0.5-3.4,2.3-4.5,4.4c-0.1,0.2,0,0.5,0.2,0.7C296.7,13.6,297,13.5,297.1,13.2"/>
			<path id="Fill-102" class="st0" d="M302.8,8.5c2.3-0.3,4.1-0.4,5.3-0.3c0.3,0,0.5-0.2,0.5-0.5c0-0.3-0.2-0.5-0.5-0.5
				c-1.2-0.1-3.1,0-5.5,0.3c-0.3,0-0.5,0.3-0.4,0.6C302.3,8.3,302.5,8.5,302.8,8.5"/>
			<path id="Fill-104" class="st0" d="M298.2,12.3L298.2,12.3c-0.7,1-2.1,3-2.5,4.2c-0.1,0.3,0,0.5,0.3,0.6c0.3,0.1,0.5,0,0.6-0.3
				c0.4-1.1,1.8-3.1,2.4-3.9l0.1-0.1c0.2-0.2,0.1-0.5-0.1-0.7C298.7,12.1,298.3,12.1,298.2,12.3"/>
			<path id="Fill-106" class="st0" d="M300.6,11.3l0.3-0.2c0.9-0.6,1.7-1.2,4-1.5c0.3,0,0.5-0.3,0.4-0.5c0-0.3-0.3-0.5-0.6-0.4
				c-2.6,0.3-3.6,1-4.5,1.7l-0.3,0.2c-0.2,0.2-0.3,0.5-0.1,0.7C300,11.4,300.3,11.5,300.6,11.3"/>
			<path id="Fill-108" class="st0" d="M303.2,11.4c1-0.3,3.8-0.5,4.8-0.4c0.3,0,0.5-0.2,0.5-0.5c0-0.3-0.2-0.5-0.4-0.5
				c-1.2-0.1-4,0.1-5.2,0.5c-0.3,0.1-0.4,0.3-0.4,0.6C302.7,11.3,303,11.4,303.2,11.4"/>
			<path id="Fill-110" class="st0" d="M301.2,11.3c-0.8,0.5-2.3,2.4-2.6,3.1c-0.1,0.3,0,0.6,0.2,0.7c0.2,0.1,0.5,0,0.7-0.2
				c0.3-0.5,1.7-2.2,2.3-2.7c0.2-0.2,0.3-0.5,0.1-0.7C301.8,11.2,301.4,11.1,301.2,11.3"/>
			<path id="Fill-112" class="st0" d="M297.6,16.1c-0.1,0.2-0.2,0.5-0.4,0.8c-0.4,0.7-0.9,1.7-1.4,3.2c-0.1,0.3,0.1,0.5,0.3,0.6
				c0.3,0.1,0.5-0.1,0.6-0.3c0.4-1.4,0.9-2.4,1.3-3c0.2-0.4,0.4-0.7,0.5-1c0.1-0.3,0-0.6-0.3-0.6C298,15.7,297.7,15.8,297.6,16.1"/>
			<path id="Fill-114" class="st0" d="M296.6,22.1L296.6,22.1c0.1-0.3,0-0.5-0.3-0.6c-0.3-0.1-0.5,0-0.6,0.3
				c-0.1,0.2-0.2,0.3-0.3,0.6L296.6,22.1z"/>
			<path id="Fill-116" class="st0" d="M306.7,9.4h4c0.3,0,0.5-0.2,0.5-0.5c0-0.3-0.2-0.5-0.5-0.5h-4c-0.3,0-0.5,0.2-0.5,0.5
				C306.2,9.1,306.4,9.4,306.7,9.4"/>
			<path id="Fill-118" class="st0" d="M270.3,1.3h-28.3h-0.7V2v20c0,2.8,1.7,4.9,5.2,6.6l0,0l0,0l9.3,3.9l0.1,0.1h0.1h0h0.1l0.1-0.1
				l9.3-3.9l0,0l0,0c3.5-1.6,5.2-3.8,5.2-6.6V2V1.3H270.3z M265.2,27.4l-9.1,3.8l-9.1-3.8c-3.9-1.8-4.4-3.9-4.4-5.3V2.8h26.9v19.3
				C269.6,23.5,269.1,25.5,265.2,27.4L265.2,27.4z"/>
			<polygon id="Fill-120" class="st0" points="255.9,31.8 256.3,31.8 256.3,2.5 255.9,2.5 			"/>
			<polygon id="Fill-122" class="st0" points="242.3,15.9 270,15.9 270,15.5 242.3,15.5 			"/>
			<path id="Fill-123" class="st0" d="M268.1,13.7V4.2V4h-0.2h-9.7H258v0.2v9.4v0.2h0.2h9.7h0.2V13.7z M258.4,13.7V4.2l-0.2,0.2h9.7
				l-0.2-0.2v9.4l0.2-0.2h-9.7L258.4,13.7z"/>
			<path id="Fill-124" class="st0" d="M258.2,4.8c0.3,0,0.6-0.3,0.6-0.6s-0.3-0.6-0.6-0.6s-0.6,0.3-0.6,0.6S257.9,4.8,258.2,4.8"/>
			<path id="Fill-125" class="st0" d="M258.2,14.2c0.3,0,0.6-0.3,0.6-0.6c0-0.3-0.3-0.6-0.6-0.6s-0.6,0.3-0.6,0.6
				C257.6,14,257.9,14.2,258.2,14.2"/>
			<path id="Fill-126" class="st0" d="M267.9,14.2c0.3,0,0.6-0.3,0.6-0.6c0-0.3-0.3-0.6-0.6-0.6s-0.6,0.3-0.6,0.6
				C267.3,14,267.6,14.2,267.9,14.2"/>
			<path id="Fill-127" class="st0" d="M267.9,4.8c0.3,0,0.6-0.3,0.6-0.6c0-0.3-0.3-0.6-0.6-0.6s-0.6,0.3-0.6,0.6
				C267.3,4.6,267.6,4.8,267.9,4.8"/>
			<polygon id="Fill-128" class="st0" points="262.5,4.2 263,4.7 263.4,4.2 263,3.8 			"/>
			<polygon id="Fill-129" class="st0" points="262.5,13.7 263,14.1 263.4,13.7 263,13.2 			"/>
			<polygon id="Fill-130" class="st0" points="257.7,9 258.2,9.4 258.6,9 258.2,8.5 			"/>
			<polygon id="Fill-131" class="st0" points="267.4,9 267.9,9.4 268.3,9 267.9,8.5 			"/>
			<path id="Fill-132" class="st0" d="M263.6,10.7c-0.4,0-0.7-0.1-0.9,0.5c-0.1,0.4,0,0.6-0.8,1l-0.9,0.4c-0.5,0.2-0.9-0.1-0.1-0.5
				c0.6-0.3,0.9-0.4,1.1-0.9c0.1-0.5-0.3-1.1,0.5-1.3c0.7-0.1,1-0.4,0.2-1c-0.1-0.1-0.4,0.1-0.8,0.3l-1.3,0.7
				c-0.4,0.2-0.8-0.3,0.1-0.7l1.2-0.5c0.5-0.3,0.4-0.5,0-0.8l-1.3-1.1c-0.5-0.5-0.2-0.8,0.4-0.3l1,0.8c0.3,0.2,1-0.1,1-0.5
				c-0.1-0.4-0.4-1.4,0.3-1.4c0.4,0,1.5-0.2,1.3,0.6l-0.7,2.2c-0.2,1,0.6,1.9,0.8,0.8l0.2-1.9c0.1-0.7,1.5-0.8,1.5,0.2L266,10
				c0,0.6-0.4-0.1-0.7-0.5c-0.3-0.7,0-0.5,0.2-0.3l0.1-1.9c0-0.4-0.5-0.4-0.5,0l-0.1,1.9c0,0.3-0.4,0.4-0.6,0.8
				c-0.1,0.2,0.1,0.7,0.5,0.8c0.4,0.2,0.8,0,0.9,0.5c0,0.4,0.4,1.3,0.1,1.5c-0.2,0.2-0.4-0.2-0.5-0.6c0-0.3-0.2-0.8-0.5-0.8
				C264.6,11.4,263.9,11.6,263.6,10.7"/>
			<path id="Fill-133" class="st0" d="M247.6,5.6h5c0.6,0,0.6-0.6,0-0.6h-2.9c-0.4,0-0.4-0.5,0-0.5h2.9c0.6,0,1.3,0.4,0.8,1.1
				c-0.1,0.2-0.1,0.3,0.1,0.4c0,0,0.1,0.1,0.6,0.3c0.4,0.1,0.4,0.6,0.5,0.8c0.1,0.4-0.4,0.4-0.6,0.1c0-0.2-0.1-0.4-0.4-0.5l-0.9-0.3
				L251.7,7c-0.2,0.2-0.5,0.3-0.9,0.3h-1.4c-0.4,0-0.4-0.4,0-0.4h1c0.1,0,0.5-0.2,0.7-0.5h-2.7c-0.7,0-0.9,0.1-1.7,0.3l-2.1,0.6
				c-0.5,0.1-0.6-0.3-0.1-0.4l1-0.3c0.6-0.2,0.5-0.5-0.2-0.8l-1-0.5c-0.4-0.2-0.2-0.7,0.2-0.4l1.3,0.6c0.4,0.2,0.6-0.1,0.5-0.4
				c-0.2-0.5-0.1-1.1,0.3-1.1c0.4,0,1.6-0.2,1.1,0.5C247.7,4.7,247,5.6,247.6,5.6"/>
			<path id="Fill-134" class="st0" d="M247.6,9.4h5c0.6,0,0.6-0.6,0-0.6h-2.9c-0.4,0-0.4-0.5,0-0.5h2.9c0.6,0,1.3,0.4,0.8,1.1
				c-0.1,0.2-0.1,0.3,0.1,0.4c0,0,0.1,0.1,0.6,0.3c0.4,0.1,0.4,0.6,0.5,0.8c0.1,0.4-0.4,0.4-0.6,0.1c0-0.2-0.1-0.4-0.4-0.5l-0.9-0.3
				l-1.1,0.6c-0.2,0.2-0.5,0.3-0.9,0.3h-1.4c-0.4,0-0.4-0.4,0-0.4h1c0.1,0,0.5-0.2,0.7-0.5h-2.7c-0.7,0-0.9,0.1-1.7,0.3l-2.1,0.5
				c-0.5,0.1-0.6-0.3-0.1-0.4l1-0.3c0.6-0.2,0.5-0.5-0.2-0.8l-1-0.5c-0.4-0.2-0.2-0.7,0.2-0.4l1.3,0.6c0.4,0.2,0.6-0.1,0.5-0.4
				c-0.2-0.5-0.1-1.1,0.3-1.1c0.4,0,1.6-0.2,1.1,0.5C247.7,8.5,247,9.4,247.6,9.4"/>
			<path id="Fill-135" class="st0" d="M247.6,13.1h5c0.6,0,0.6-0.6,0-0.6h-2.9c-0.4,0-0.4-0.5,0-0.5h2.9c0.6,0,1.3,0.4,0.8,1.1
				c-0.1,0.2-0.1,0.3,0.1,0.4c0,0,0.1,0.1,0.6,0.3c0.4,0.1,0.4,0.6,0.5,0.8c0.1,0.4-0.4,0.4-0.6,0.1c0-0.2-0.1-0.4-0.4-0.5l-0.9-0.3
				l-1.1,0.6c-0.2,0.2-0.5,0.3-0.9,0.3h-1.4c-0.4,0-0.4-0.4,0-0.4h1c0.1,0,0.5-0.2,0.7-0.5h-2.7c-0.7,0-0.9,0.1-1.7,0.3l-2.1,0.6
				c-0.5,0.1-0.6-0.3-0.1-0.4l1-0.3c0.6-0.2,0.5-0.5-0.2-0.8l-1-0.5c-0.4-0.2-0.2-0.7,0.2-0.4l1.3,0.6c0.4,0.2,0.6-0.1,0.5-0.4
				c-0.2-0.5-0.1-1.1,0.3-1.1c0.4,0,1.6-0.2,1.1,0.5C247.7,12.2,247,13.1,247.6,13.1"/>
			<path id="Fill-136" class="st0" d="M261,18.1h5c0.6,0,0.6-0.6,0-0.6h-2.9c-0.4,0-0.4-0.5,0-0.5h2.9c0.6,0,1.3,0.4,0.8,1.1
				c-0.1,0.2-0.1,0.3,0.1,0.4c0,0,0.1,0.1,0.6,0.3c0.4,0.1,0.4,0.6,0.5,0.8c0.1,0.4-0.4,0.4-0.6,0.1c0-0.2-0.1-0.4-0.4-0.5l-0.9-0.3
				l-1.1,0.6c-0.2,0.2-0.5,0.3-0.9,0.3h-1.4c-0.4,0-0.4-0.4,0-0.4h1c0.1,0,0.5-0.2,0.7-0.5h-2.7c-0.7,0-0.9,0.1-1.7,0.3l-2.2,0.6
				c-0.5,0.1-0.6-0.3-0.1-0.4l1-0.3c0.6-0.2,0.5-0.5-0.2-0.8l-1-0.5c-0.4-0.2-0.2-0.7,0.2-0.4l1.3,0.6c0.4,0.2,0.6-0.1,0.5-0.4
				c-0.2-0.5-0.1-1.1,0.3-1.1c0.4,0,1.6-0.2,1.1,0.5C261.1,17.2,260.4,18,261,18.1"/>
			<path id="Fill-137" class="st0" d="M261,21.9h5c0.6,0,0.6-0.6,0-0.6h-2.9c-0.4,0-0.4-0.5,0-0.5h2.9c0.6,0,1.3,0.4,0.8,1.1
				c-0.1,0.2-0.1,0.3,0.1,0.4c0,0,0.1,0.1,0.6,0.3c0.4,0.1,0.4,0.6,0.5,0.8c0.1,0.4-0.4,0.4-0.6,0.1c0-0.2-0.1-0.4-0.4-0.5l-0.9-0.3
				l-1.1,0.6c-0.2,0.2-0.5,0.3-0.9,0.3h-1.4c-0.4,0-0.4-0.4,0-0.4h1c0.1,0,0.5-0.2,0.7-0.5h-2.7c-0.7,0-0.9,0.1-1.7,0.3l-2.2,0.6
				c-0.5,0.1-0.6-0.3-0.1-0.4l1-0.3c0.6-0.2,0.5-0.5-0.2-0.8l-1-0.5c-0.4-0.2-0.2-0.7,0.2-0.4l1.3,0.6c0.4,0.2,0.6-0.1,0.5-0.4
				c-0.2-0.5-0.1-1.1,0.3-1.1c0.4,0,1.6-0.2,1.1,0.5C261.1,21,260.4,21.9,261,21.9"/>
			<path id="Fill-138" class="st0" d="M265.1,24.8h-2c-0.4,0-0.4,0.5,0,0.5h2c0.6,0,0.6,0.6,0,0.6H261c-0.6,0,0.1-0.9,0.2-1.2
				c0.4-0.7-0.8-0.5-1.1-0.5c-0.4,0-0.5,0.7-0.3,1.1c0.1,0.4-0.1,0.6-0.5,0.4l-1.3-0.6c-0.5-0.2-0.6,0.3-0.2,0.4l1,0.5
				c0.7,0.4,0.8,0.4,0.2,1l-1,1.1c-0.5,0.5-0.4,0.7,0,0.6l2.2-1.7c0.3-0.3,1.4-0.3,1.4-0.3l-0.2,0.5l-0.7,0.5
				c-0.1,0.1-0.3,0.3-0.2,0.4c0.1,0.1,0.3,0.2,0.4,0.1l0.9-0.6c0.1,0,0.7-0.7,1-1h1v0l-0.1,0.2l-0.6,0.4c-0.1,0.1-0.2,0.3-0.1,0.4
				c0.1,0.1,0.3,0.1,0.4-0.1l0.8-0.6c0.1-0.1,0.1-0.2,0.1-0.3l0.1-0.2h0.5C266.3,26.7,266.9,24.8,265.1,24.8"/>
			<path id="Combined-Shape" class="st0" d="M478.5-18.5c0.9,0,1.3-1.4,1.6-2h2.7c-0.1,1.1-0.1,2.9-0.1,4.8c0,1.5,0.3,9.1,0.4,11
				h-2.7l0,0c-2.2-7-7.8-15.3-19.8-15.3C447.9-20.1,439-9.4,439,4.8c0,11.3,6,26,21.7,26c5,0,10-1.4,13.1-5c0.2-3.4,0.1-12,0.1-13.7
				l-7.9-0.3L466,9.5c2.1,0,4.4,0.1,7.2,0.1c7,0,11.1-0.2,15.6-0.3v2.4c-4.2,0.2-4.6,0.6-4.6,2.1v11.4c-8.2,5-16.7,8.3-26.6,8.3
				c-14.5,0-29.6-9.7-29.6-28c0-16,12.1-28.1,30.3-28.1C469.5-22.5,477.2-18.5,478.5-18.5L478.5-18.5z"/>
			<path id="Fill-140" class="st0" d="M28.1,30l5.4-0.2c0.2-4,0.2-5,0.2-14.8c0-25.8,0-28.6-0.2-33.7l-5.4-0.2v-2.4
				c2,0,5.2,0.2,11,0.2S48-21.3,50-21.3v2.4l-5.9,0.2c-0.2,4.8-0.2,16.8-0.2,22.4h28.7c0-5.6,0-17.6-0.2-22.4l-6-0.2v-2.5
				c2,0.2,5.2,0.2,11,0.2c5.8,0,9-0.2,11-0.2v2.4l-5.5,0.2c-0.1,4.1-0.1,5.1-0.1,14.8c0,25.8,0,28.7,0.2,33.7l5.4,0.2v2.4
				c-2,0-5.2-0.2-11-0.2c-5.8,0-8.9,0.2-11,0.2V30l6-0.2C72.6,25,72.6,11.7,72.6,6H43.9c0,17.1,0,19,0.2,23.8L50,30v2.5
				c-1.9-0.2-5.1-0.2-10.9-0.2s-8.9,0.2-11,0.2V30z"/>
			<path id="Fill-141" class="st0" d="M1.9-19.2c-0.1,4.1-0.2,5.3-0.2,15.3c0,25.8,0,28.6,0.2,33.6l5.9,0.2v2.4
				c-2,0-5.8-0.2-11.9-0.2c-6,0-9.1,0.2-11.1,0.2v-2.4l5.9-0.2c0.2-4,0.2-5,0.2-14.8c0-25.9,0-28.7-0.2-34.2l-7.4,0
				c-6.5,0-7.9,0.6-8.3,1.3C-25.6-17-26-9.9-26-8.4h-3.7l-0.7-12.9c8.7,0.1,17,0.2,26.3,0.2h0.8c9.3,0,17.6-0.1,26.3-0.2L22.2-8.4
				h-3.7c-0.1-1.5-0.5-8.5-0.9-9.5c-0.4-0.7-1.9-1.3-8.3-1.3H1.9z"/>
			<path id="Fill-143" class="st0" d="M138.9,18.4l-3.7,11.7h-18.4c-7,0-7.5-0.5-7.7-3.4c-0.2-2.4-0.2-17.7-0.2-21.6h1.5
				c2.4,0,11.2,0,12.1,0.7c1,0.8,1,2.1,1.4,7.3h3.7c-0.1-4.1-0.3-7.2-0.3-10.6c0-2.5,0.1-5,0.2-7.3h-3.4c-0.3,4.9-0.9,6.9-1.9,7.4
				c-0.9,0.5-6.2,0.6-11.7,0.6h-1.5v-22.3h15.2c2.2,0,7.5,0,9.6,0.9c1.9,1,2,2.7,2.4,8.4h3.7v-11.4c-3.4,0-26.6,0.2-30.4,0.2
				c-8.5,0-12.8-0.2-17.3-0.2v2.4l6.4,0.2c0.2,5,0.2,7.8,0.2,33.6c0,9.8-0.1,10.7-0.2,14.8L92.2,30v2.4c3.7,0,19.1-0.2,23.9-0.2
				h25.1l1.1-13.9H138.9z"/>
			<path id="Fill-144" class="st0" d="M536.9,18.4l-3.7,11.7h-18.4c-7,0-7.5-0.5-7.7-3.4C507,24.2,507,9,507,5.1h1.5
				c2.4,0,11.2,0,12.1,0.7c1,0.8,1,2.1,1.4,7.3h3.7c-0.1-4.1-0.3-7.2-0.3-10.6c0-2.5,0.1-5,0.2-7.3h-3.4c-0.3,4.9-0.9,6.9-2,7.4
				c-0.9,0.5-6.2,0.6-11.7,0.6H507v-22.3h15.2c2.2,0,7.5,0,9.6,0.9c1.9,1,2,2.7,2.4,8.4h3.7v-11.4c-3.4,0-26.6,0.2-30.4,0.2
				c-8.5,0-12.8-0.2-17.3-0.2v2.4l6.4,0.2c0.2,5,0.2,7.8,0.2,33.6c0,9.8-0.1,10.7-0.2,14.8l-6.4,0.2v2.4c3.7,0,19.1-0.2,23.9-0.2
				h25.1l1.1-13.9H536.9z"/>
			<path id="Fill-145" class="st0" d="M405.7,11.2c0,0.2-0.4,0.5-1,0.5H388c-1.2,0-1.5-0.2-1.5-0.5c0-0.2,0.2-0.5,0.3-1.1l9.1-21.8
				c0.3-0.5,0.3-0.8,0.5-0.8c0.2,0,0.4,0.4,0.5,0.7l0,0.1l8.4,21.9C405.6,10.8,405.7,11,405.7,11.2 M425.8,28.1
				c-0.9-1.6-2.2-4.1-3.4-6.8L403-22.5h-4.9L386.5,5.1c-1.6,3.8-9.2,20.9-10.2,22.6c-1.2,2.1-2.1,1.8-6.7,2.2v2.4
				c1.7-0.1,6.4-0.2,9.3-0.2c2.6,0,5.2,0.2,7.5,0.2V30c-6.2-0.1-6.8-0.4-6.8-1.2c0-0.3,0.3-1.2,0.7-2.3l4.6-11.2
				c0.5-1.1,0.7-1.4,1.8-1.4h18.9c1.5,0,1.7,0,2.2,1.1l5,12.1c0.3,0.8,0.6,1.4,0.6,1.9c0,0.4-0.6,0.8-7.5,0.9v2.4
				c6.5-0.2,9.3-0.2,12.4-0.2c4.5,0,9.5,0.1,13.2,0.2v-2.6C428.2,29.8,426.6,29.4,425.8,28.1"/>
			<path id="Fill-146" class="st0" d="M249.1,17.2c-0.5,0-1,0-1.1,0.6c-0.2,0.6-0.7,1.2-1.2,1.4c-0.1-0.3-0.2-0.5-0.1-0.9
				c0.2-0.7-0.3-0.9-0.7-0.9c-0.3,0-0.5,0-0.7,0.3c-0.2,0.3-0.6,1,0.1,1.2c0.7,0.3,0,1.2-0.2,1.6c-0.7,1.1,0.6,4.1,2.3,4.9l6.8,3.1
				V17.2H249.1z M249.2,25.7c-0.8-0.4-2.3-1.9-2.6-4.7c0-0.1,0-0.1,0-0.2l7,6.9L249.2,25.7z M253.8,27l-6.9-6.8
				c0.2-0.3,0.5-0.4,0.6-0.4c0.1,0,0.2-0.1,0.2-0.1l6.1,6V27z M253.8,24.8l-5.7-5.5c0.2-0.3,0.4-0.5,0.7-0.7l5,4.9V24.8z
				 M253.8,22.7l-4.4-4.2c0.3-0.1,0.7-0.1,1.1-0.1l3.2,3.2V22.7z M253.8,20.6l-2.5-2.4c0.6-0.1,1.4-0.3,2.5-0.8V20.6z"/>
			<path id="Fill-147" class="st0" d="M361.5,25h-18.4v-2.4c-1.4-0.3-4.6-0.8-7.9-0.9c-0.3-0.3-1.9-1.6-2.5-2.1
				c-1.1-0.6-4.2-1-5.7-0.2c-1.7,0.9-3.7,1.6-5.4,1.8c0.1-0.4,0.2-2.4,0-2.8c-0.5-0.5-0.9-1.2-1-1.8l0.7-0.5c3.1,3.1,3.4,2,4.3,1.7
				c-1-0.6-1.1-1-1.1-1c1.5,0.3,3.4-0.1,4.1-0.6c-1.7-0.5-1.3-1.3-1.3-1.3c1.8,0.2,3.4-0.8,3.7-1.2c-0.8-0.5-1.1-1-1.5-1.6
				c3-1.3,2.3-1.6,3.1-2.1c-1.2-0.1-1.7-1.2-1.7-1.2c1-0.4,2.1-1,3-1.8c-1.4-0.1-2.3-1.1-2.5-1.8c2.8-0.8,2.9-2.1,3.5-3.1
				c-2.2,0.4-2.9-0.7-2.9-0.7c2.7-1.4,2.8-2.6,2.5-3.4c-2.1,1-3.2,0.1-3.8-0.4c0.9-0.9,1.4-2.5,1.4-3.3c-1.5,0.7-3.2,0.3-4-0.1
				c0.7-1.9,0.1-3.1-0.2-4c-0.9,1.1-2.1,1.2-3,1.4c0.4-2.5-0.2-3.1-0.9-3.7c-0.7,1.3-1.6,1.3-3,1.4c-0.9-3.7-2-3.2-2.8-3.3
				c0,1-0.9,1.5-1.6,2.1c-2.6,1.2-2.7,2.8-2.9,4.2l-9.2-2.9c-1.2-0.4-2,0.1-0.4,0.8l8.6,3.8c-1.4,0.2-2,1.7-3.2,2
				c-1.8,0.6-3.7,0.9-5.3,1.8c-1.3,0.6-0.3,2.3-1.2,3.2c-0.1,0.6-0.2,1.3,0.3,1.6c0.4,0.3,1,0.3,1.5,0.3c0,0.2-0.1,0.4-0.2,0.5
				c-0.1,0.2-0.2,0.4-0.1,0.6c0.8,1,2,1.7,3.5,1.3c0.7-0.3,0.8-1,1.4-1.4c1.7-1,3.2,0.5,4.5,1.2c0,0.7-0.8,1-0.8,1.7
				c0,0,0,0.1,0,0.1c0.6-0.1,1.3-0.2,1.9-0.5c1.1-0.5,2.9-2.1,3.8-3c0.8-0.9,0.9-2.1,0.4-3c-0.3-0.4-0.8-0.7-1.3-0.8
				c-0.2,0.2,0.1,0.6,0.1,0.8c0,1.3-0.8,2.5-1.8,3.1c-1.8,0.7-3-0.9-4.4-1.5c-1.5-0.1-3.1-0.1-3.8,1.4c-0.4,0.2-0.3,0.5-0.8,0.6
				c-0.3,0-0.6,0-0.9-0.3c-0.2-0.6,0.6-0.4,0.9-0.7c0.4-0.1,0.5-0.5,0.9-0.7c0.1-0.6-0.6-0.7-0.9-1c-0.7-0.2-1.5-0.1-2.1,0.3
				c-0.2,0.1-0.5-0.1-0.6-0.3c-0.1-0.3,0.2-0.5,0.2-0.8c0.5-0.1,1.1,0.1,1.4-0.4c0.2-0.3,0.2-0.8,0-1.1c-0.2-0.2-0.5-0.2-0.6-0.1
				c-0.1,0.2-0.2,0.3-0.4,0.3c-0.2-0.2,0-0.3,0-0.6c0.5-0.5,1.3-0.3,1.9-0.6c1.2-0.6,2.7-0.4,3.8-1.2c0.3-0.1,0.2,0.4,0.4,0.5
				c-0.1,0.7-0.9,0.9-1.4,1.1c0.6,0.2,1.1-0.2,1.8,0c1.5,0.4,3.1,0.1,4.4-0.6c-0.1-0.4-0.6-0.6-0.8-1c-1-0.6-2.3-0.6-3.5-0.6
				c0.7-1.2,2.4-0.8,3.7-1l1.2,0.3c0.1-0.6,0-1.3,0.2-1.9c1.3,0.1,1.1,1.5,1.4,2.4c0.6,0.1,1.3,0,1.8,0.3c2.9,2,4.3,5.6,3.9,9.4
				c-0.5,1.8-0.7,3.8-1.9,5.3c-0.2,0.6,1.1,0.8,0.4,1.2l0,0l0.2,0.4l0,0l0.5-0.7l0.5,0.7c0.1,0.1,0.2,0.3,0.2,0.4l0-0.1
				c0.4,0.8,0.4,1.3,1.3,1.9c-0.3,0.1-0.9,0.6-2.1-0.1c-0.6-0.3-0.9-0.2-0.9-0.2l-1.3,0.7l-8.5-5c-0.3,0.1-0.6,0.3-0.9,0.4
				c-0.8,0.4-1.2,0-2.8,0c0,0.1,0,0.1,0,0.2c0,0.2-0.1,0.5-0.3,0.6c-0.1,0.1-0.3,0.2-0.4,0.2l0,0l-0.2,0c-1-0.1-3.7,0.2-4.7,0.4
				c-0.4,0.1-0.8-0.1-1-0.4c0.1,0.2,0.1,0.3,0.1,0.5c0,0.2-0.1,0.3-0.2,0.4v0l-0.2,0.1c-0.2,0.2-0.6,0.6-1,1c0.1,0,0.3,0,0.4,0
				c4.6-0.4,8.6-1.2,9.7-2.1c3.4,0.5,7.3,3.1,7.9,3.7c0,1.3,0.3,2.8,0.8,3.3c1.2,2.2-0.2,4.3-1.4,4.9l-1,0.3l-0.3-0.2l1.4-2.2
				c0-0.9-0.1-2.6-0.2-2.9l-0.1,2.5c-0.3,1.3-1.3,2.1-1.6,2.5c-0.4-0.3-1.9-1.1-2.3-1.4c0.1-0.4,0.2-1.7,0.2-2.4l-0.2,0
				c-0.3,0.4-0.5,1.5-0.9,1.7c-0.4,0.5-1,0.5-1.4,1c0.1,0.3,0.6,0.2,0.9,0.4c2,1,3,1.7,4.9,3c1.8,1.2,2.9,1.7,4.2,2.7
				c0.5,0.3,0.3,0.9,0.3,1.4c-0.7,1.2-2.4,0.8-3.7,0.8c-1.6,0-3.1-0.2-4.6,0.2c-1.2,0.6-3,1.3-4.2,0.2c-0.6-0.4-1.3-0.7-1.9-1.1
				c0.1-0.5,0.7-0.6,1.1-0.8c0.7-0.4,1.5-0.2,2.1,0.2c0.2,0.2,0.5-0.1,0.7-0.2c0-0.2,0-0.7,0.4-0.7c1.2,0.7,2.8,0.9,4.3,0.6
				c0.2-0.1,0.6-0.1,0.8-0.2c-0.8-0.6-2-0.8-2.9-1.4c-3-0.7-5.6-1.5-8.7-1.8c-0.6-0.4-0.9-2-1-2.7c0-1.2,0-1.8,0.3-2.9
				c0.1-0.5,0.7-0.7,1.2-1.1l-0.4-0.2c-0.6,0-2,1-2.6,1.8c0,0-0.1,0.8-0.1,1.8c-2-0.2-5.5-0.2-8.4,0c0-0.2,0.4-2.1,0.7-2.8
				c0.1-0.3,0-0.5-0.2-0.7c-0.3-0.1-0.6,0-0.7,0.2c-0.5,1.2-0.6,1.8-0.8,3.3c0,0,0,0.1,0,0.1c-0.2,0-0.4,0-0.7,0.1
				c0.1-0.3,0.1-0.6,0.2-0.8l0.1-0.4c0.1-0.3-0.1-0.5-0.4-0.6c-0.3-0.1-0.5,0.1-0.6,0.4l-0.1,0.4c-0.1,0.4-0.2,0.8-0.3,1.2v0
				c-3.3,0.4-6.4,0.9-8.4,1.5c0-0.3,0-0.6,0-0.9c2.2-0.2,6.4-1.2,7.2-1.6c-0.7,0.2-5.2,0.9-7.3,1.1c-0.1-0.4-0.2-0.8-0.3-1.1
				c2.5-0.2,7.1-1.2,8-1.6c-0.8,0.2-6,1-8.3,1.1c-0.2-0.4-0.5-0.7-0.7-1c-0.2-0.2-0.4-0.4-0.6-0.5c2.9-0.2,7.5-0.8,8.5-1.1
				c-0.9,0.1-6.6,0.7-9.2,0.7l-0.1-0.1c0.2-0.4,0.4-0.7,0.6-1l0-0.1c0,0,0-0.1,0.1-0.1c2-0.1,4.1-0.4,4.6-0.5
				c-0.5,0.1-2.5,0.1-4.5,0.2c0.3-0.9,0.4-1.8,0.4-2.8c0.6,0.5,1.4,0.7,2.2,0.7h0.1l0.1,0c1.2-0.2,2.1-0.4,2.7-1.2l0,0l0,0
				c2.9,0.7,5.3,0.9,7.3,0.7c0.2-0.3,0.3-0.6,0.4-0.8l0,0l0,0c0.1-0.2,0.3-0.3,0.5-0.3c0.2,0,0.4,0,0.5,0c-0.1-0.1-0.2-0.2-0.2-0.4
				c0-0.1,0-0.1,0-0.2c-1.8,0.3-4.2,0.3-8.2-0.6c0.2-1.3-0.3-2.7-1-3.6l0-0.1l0-0.1c-0.1-0.1-0.1-0.1-0.2-0.2
				c1.8-2.4,5.7-0.2,8.2,0.4c6.8,1.3,9-5.2,6.7-9.4c-2.5-4-6.7-3-11.1-2.1c-5.8,1-4.2-3-3.1-3.3c-3,0.2-3.5,2.8-3.3,5.7
				c-2.1-0.7-1.8-2.4-1.6-3c-3,4.8,2.3,6.8,3.8,7.6c0,0-1.9,0.9-2.3,1.2c-1.2-1.1-2.6-2.3-3.5-2.6l0,0c-0.8-0.2-1.5-0.3-2.1-0.3
				c0-1-0.4-2.1-1-2.8l0,0l0,0L273.5-4c-1.9-2.2-6-1.5-6.1,1.5c0,0.2,0,0.4,0.1,0.6c-0.6-0.3-1.2-0.5-1.9-0.7c0,0,0,0-0.1,0
				c-0.2-0.1-0.4-0.1-0.6-0.2c0,0-0.1,0-0.1,0c-0.2-0.1-0.4-0.1-0.6-0.2c0,0,0,0,0,0c-0.4-0.1-0.9-0.2-1.4-0.3c0,0,0,0,0,0
				c-0.2,0-0.4-0.1-0.6-0.1c0,0-0.1,0-0.2,0c-0.2,0-0.4-0.1-0.5-0.1c-0.1,0-0.1,0-0.2,0c-0.2,0-0.4-0.1-0.6-0.1c0,0-0.1,0-0.1,0
				c-0.5-0.1-0.9-0.1-1.4-0.2c-0.1,0-0.1,0-0.2,0c-0.2,0-0.4,0-0.5,0c-0.1,0-0.2,0-0.2,0c-0.2,0-0.3,0-0.5,0c-0.1,0-0.2,0-0.3,0
				c-0.2,0-0.3,0-0.5,0c-0.1,0-0.2,0-0.2,0c-0.2,0-0.5,0-0.7,0c-4.3,0-8.2,0.7-11.4,2.1c0-0.2,0.1-0.5,0.1-0.6
				c-0.1-3-4.1-3.7-6.1-1.5L235.2,0l0,0l0,0c-0.6,0.8-1,1.8-1,2.8c-0.7,0-1.4,0.1-2.1,0.3l0,0l0,0c-0.7,0.2-1.8,1-2.7,1.9
				c-0.6-0.5-2.7-0.9-2.7-0.9c3.2-0.4,6.2-5.5,0.4-9c-7.4-3-4.7,5.8-1.9,2.1c-2,1-2.1-1.4-0.5-1.4c1.8,0,1.8,2.9-0.3,2.8
				c-2-0.1-2.5-1-4.7-1.4c-13.5-2.4-9.8,16,0.2,11.5c1.6-0.7,4-2.6,6.7-1.9c-2,1.9-2.8,4.1-2.6,5.3c-3.6,0.5-11.2-1.5-14.4-3.8
				l1.7-0.2c-1-0.5-1.6-3.3-1.6-3.3c-0.4-1.1-1.5-2.2-1.5-2.2c0.3-0.2,1,0.1,1,0.1s0.1,0.7,0-0.3c-0.1-1-1.1-3.1-1.6-3.3
				c0.6-0.9,0.8-1.6,0.8-1.6c-2.1,0.6-2.2-0.8-3.9-1.1c0.4-0.3,0.6-1.2,0.6-1.8c-0.5,0.5-2.1-0.4-3.6,0.4c-0.7,0.4-0.6-0.1-1.8,1.1
				h-10c-1.2-1.2-1.1-0.7-1.8-1.1c-1.5-0.8-3.1,0.1-3.6-0.4c0.1,0.6,0.9,1.5,1.3,1.8c-0.8,0.2-1.4,0.4-1.8,0.8
				c-0.4,0.5-1.9,0.6-1.9,0.6c0.5,0.6,1.3,1.3,1.3,1.3c-1.1,0.8-1.1,2.3-1.2,3.1s-1,2.1-1,2.1c0.5,0.1,1.1,0.2,1.6,0
				c-0.6,0.9-2.3,3.9-2.8,6.2c0,0,1-0.2,1.5-0.5c0.1,2.6,0.3,5.4,1,6.3l0.6-1.2c0.7,0.9-1.2,3.8-2.9,3.9c0,0-4.3,0.2-5.1,0.2
				c-0.8,0-1.4,0.5-2.3,1c-0.9,0.6-2.9,0.9-3.4,1c-0.5,0.1-1.8,0.4-1.8,3.6h-14.2l8.8,3.4l-8.8,3.4h32v-2.2c3.4,0.1,7.8,0.8,14,2.3
				c4.4,1.1,8.3,1.2,12.5,1.2c4.8,0,7.8-2.2,7.8-2.3v-1.3c3.3,0.3,6.7,1.1,9.3,1.7c1.8,0.5,5.3,1.4,6.7,1.4c0.8,0.1,1.6-0.1,2.3-0.6
				l0,0l0,0c0.6-0.5,1.2-1.4,1.3-2.1c1.2,0,3.9,1.7,8,2.6c2.8,1,5.8,1.5,9.1,1.5c0.4,0,0.7,0,1.1,0c0,0,0,0,0.1,0
				c2.9-0.1,5.6-0.6,8-1.5c4.1-1,6.7-2.6,7.9-2.6c0.1,0.8,0.7,1.7,1.3,2.1l0,0l0,0c0.7,0.5,1.5,0.6,2.3,0.6c1.4,0,5-0.9,6.7-1.4
				c2.6-0.7,10.1-1.4,13.3-1.7v1.3c0.1,0,3.1,1.6,7.8,1.6c1.9,0,2.2-1.3,5,0.1c1.5,0.7,4,0,5.6-0.5c1.3-0.5,6.3,0,6.3,0
				c1.1,0.1,2-0.7,2.4-2.4c1-0.2,5.5-0.9,6.1-1v3.1h31.3l-8.8-3.4L361.5,25z M313.2-3.2c0.3,0,0.6,0.3,0.6,0.6
				c0,0.3-0.3,0.6-0.6,0.6s-0.6-0.3-0.6-0.6C312.6-2.9,312.9-3.2,313.2-3.2L313.2-3.2z M329,10.2c-0.7-0.5-2.5-1.4-3.3-1.7
				c0.1-0.3,0.2-0.9,0.3-1.1c1.7-0.5,3.2,2.2,3.6,2.6C329.6,10,329.3,10.3,329,10.2L329,10.2z M326.2,5.7c0.1-0.3,0.2-1,0.2-1.3
				c2.9-0.3,3.7,1.6,3.9,2.7C329.3,6.4,327,5.7,326.2,5.7L326.2,5.7z M329.5,3.6c-1.9-0.8-2.4-0.6-3.2-0.5c0,0,0-1-0.1-1.3
				c2.6-1.1,5,0.8,5.8,1.4C331.7,3.4,330.8,4,329.5,3.6L329.5,3.6z M331.4-0.4c-1,0.7-1.8,0.6-2.9,0.5c-2-0.1-1.7,0.2-2.5,0.4
				c0,0,0-0.6-0.5-1.2C327.8-2.2,329.8-1.4,331.4-0.4L331.4-0.4z M317.8-8.5l-0.6-0.2c-0.2-0.2-0.5-0.4-0.7-0.1c0,0-0.1,0.3-0.7,0.6
				c-0.2-1.5,1.1-2.1,2.3-3c0.3-0.2,0.8-0.6,0.9-1C318.8-11.8,320.7-10.3,317.8-8.5L317.8-8.5z M320-6.3c-0.9-0.9-1-2.1,0.9-2.7
				c1.5-0.6,2.4-0.5,2.4-0.5C323.3-7.7,320.1-6.8,320-6.3L320-6.3z M322.6-4.3c-0.2-0.7-0.8-0.6-0.6-1.2c1.1-1.6,3.9-1.6,4.6-1.9
				c0.3,0.6-0.1,1.7-1,1.8c-0.9,0.1-1.1,0-2,0.7L322.6-4.3z M323.8-3.2c2.2-1.9,4.6-0.9,5.4-0.7c0,0-0.2,0.9-1.5,1
				c-0.9,0.1-2,0.6-3,0.9C324.7-2,324.3-2.7,323.8-3.2L323.8-3.2z M324.6,11c0.3-0.2,0.6-0.8,0.7-1.1c1,0,2.2,2.5,2.6,3.4
				C326.3,13.2,324.8,11.3,324.6,11L324.6,11z M286.1,13c-0.4,0.6-1.1,0.9-1.8,1c-0.8,0-1.4-0.3-1.9-1c-0.2-0.4-0.3-1-0.1-1.4
				c0.3-0.6,0.9-1,1.5-1c0.4,0,0.8,0.2,0.9,0.5c0.2,0.2,0.2,0.6,0,0.8c-0.2,0.5-0.8,0.6-1.3,0.6l0.1,0.2c0.5,0.2,1,0.1,1.4-0.3
				c0.4-0.3,0.6-0.8,0.5-1.3c-0.3-0.7-0.9-1.4-1.7-1.5c-4.2,0.1-2,5.1-3.3,7.5c-0.5,1-1.2,2.4-3.1,2c2.9-1.2,2.4-5.7,2.4-7.3
				c0-2.2,1.3-3,2.5-3.4c1.4-0.4,2.7,0.1,3.5,1C286.3,10.5,286.6,11.9,286.1,13L286.1,13z M283.8,2.8c-0.3-0.3-0.8-0.6-0.7-1.1
				c3,1.4,7.1,1,10.1,0c1.7-0.4,3.8-0.1,4.6,1.5c0.1,0.4,0.1,0.8,0,1.2c-0.3,0.1-0.3-0.3-0.3-0.4c-1.2-1.6-3.4-1-5.1-0.7
				c-0.6,0.4-1.5,0.2-2.2,0.5C288.1,4.4,285.4,4.2,283.8,2.8L283.8,2.8z M297.1,5c-1.1,1.2-3.1,0.5-4.4,0.1
				c-0.5-0.3-1.1-0.3-1.6-0.7c0-0.5,0.5-0.4,0.9-0.5c0.8-0.3,1.7-0.5,2.6-0.6c0.8,0,1.6,0,2.2,0.5C297,4.1,297.2,4.6,297.1,5
				L297.1,5z M289.9,4.6c2.6,0.4,4.8,1.9,7.7,1.2c0.8-0.3,1.4-1,1.8-1.9c0.2-1.2,0-2.4-0.9-3.1c-3.8-3.1-7.9,1.1-11.9-0.4
				c-1.5-0.7-1.1-1.6-1.1-2.3c0.3,0.6,0.6,0.8,0.8,0.9c4.3,1.4,8.7-2.7,12.6,0.4l0.5,0.4c0.9,1.1,1.5,1.9,1.1,4
				c-0.4,1.6-1.2,2.8-3.4,3.4c-4,0.6-7.2-3.3-11.7,0l-1-1.2C285.7,5.1,287.9,4.2,289.9,4.6L289.9,4.6z M279.9,4.4
				c1.5,0.5,5.1,4.4,5.1,4.4c-0.9-0.6-1.9-0.7-3-0.4c-1.8,0.5-2.7,1.8-2.7,3.6c0,0.2,0,0.4,0,0.6c0.1,1.9,0.2,5.4-2.2,6.4l-0.1,0
				c0.2-1.1,0.3-2.3,0.3-3.5v-2.1c0-3.1-0.6-5.8-1.9-8.1C275.7,4.5,277.5,3.7,279.9,4.4L279.9,4.4z M276.1,0.8
				c0.7,0.9,1.1,2.5,0.1,3.4c-0.4,0.2-0.7,0.5-0.8,0.7c-0.6-1.1-1.4-2.2-2.4-3.1c-0.6-0.6-1.3-1.2-2.1-1.8c0.5,0,1-0.2,1.5-0.6l0,0
				l0,0c0.5-0.7,0.6-1.5,0.3-2.3c-0.1-0.3-0.3-0.6-0.5-0.8L276.1,0.8z M269.2-3.7c1.3-0.8,2.6-0.1,3.1,1c0.2,0.7,0.1,1.4-0.3,2
				c-0.5,0.5-1.1,0.6-1.6,0.4c-0.7-0.3-0.3-0.2,0.1-0.4C271.6-1,272-3,270.4-3l-0.2,0c-0.3,0-0.7,0.2-0.7,0.5c0,0-0.1,0.3,0.2,0.1
				c0.1-0.2,0.7-0.4,1-0.1c0.4,0.4,0.2,1.3-0.8,1.5C268.5-1,268.2-2.9,269.2-3.7L269.2-3.7z M242.9-3.7c1,0.8,0.7,2.7-0.6,2.6
				c-1-0.1-1.2-1.1-0.8-1.5c0.4-0.3,0.9-0.1,1,0.1c0.2,0.1,0.2-0.1,0.2-0.1c0-0.3-0.4-0.4-0.7-0.5l-0.1,0c-1.6,0-1.3,2-0.2,2.4
				c0.4,0.1,0.9,0.1,0.1,0.4c-0.5,0.2-1.1,0-1.6-0.4c-0.4-0.6-0.5-1.3-0.3-2C240.3-3.8,241.6-4.5,242.9-3.7L242.9-3.7z M236.1,0.8
				l3.9-4.4c-0.2,0.2-0.4,0.5-0.5,0.8c-0.3,0.8-0.1,1.6,0.3,2.3l0,0l0,0c0.4,0.4,0.9,0.6,1.5,0.6c-0.8,0.5-1.5,1.1-2.1,1.8
				c-0.9,0.9-1.7,2-2.4,3.1c-0.2-0.3-0.4-0.5-0.9-0.7C235,3.3,235.4,1.7,236.1,0.8L236.1,0.8z M232.3,4.4c2.4-0.7,4.1,0.1,4.4,0.9
				c-1.3,2.3-1.9,5-1.9,8.1v2.1c0,1.2,0.1,2.4,0.3,3.5l0,0c-2.4-1-2.3-4.5-2.2-6.4c0-0.2,0-0.5,0-0.6c0-1.9-0.9-3.1-2.7-3.6
				c-1-0.3-2.1-0.1-3,0.4C227.2,8.8,230.9,4.8,232.3,4.4L232.3,4.4z M229,0.2c-0.1,0.8-0.4,1.4-0.9,1.8c-0.9,0.7-2.6,0.9-5,0.5
				c-1-0.2-1.8-0.4-2.7-0.6c-2.4-0.7-4.3-1.2-6.1,0.7c0-0.3-0.1-1,0.1-1.2c1.8-2.1,3.5-1.5,5.8-0.7c0.8,0.3,1.7,0.5,2.6,0.7
				c2.4,0.4,3.9,0.2,4.9-0.6c0.5-0.5,0.8-1.2,0.9-2.1C228.8-0.9,229-0.5,229,0.2L229,0.2z M222.3,4c-0.1,0.4-0.7,0.5-1,0.7
				c-1.7,0.9-3.8,2.1-5.9,1.1c-0.5-0.3-0.5-0.9-0.6-1.3c0.1-0.7,0.6-1,1.1-1.3C218.2,2.6,220.3,3.6,222.3,4L222.3,4z M226.3,5.6
				c-2.1-0.3-3.2,0.2-4.8,0.9c-0.9,0.4-2,1-3.4,1.4l0,0l0,0c-1.8,0.5-3.8-0.3-5-2c-1.2-1.7-1.3-3.8-0.2-5.4l0-0.1l0-0.1
				c2.5-2.9,5.3-2.1,7.7-1.3c0.8,0.3,1.6,0.5,2.4,0.7c2.4,0.4,3.2,0,3.5-0.2c0.4-0.5,1.3-1.2,1.1-2.5c0,0,0.4,0.4,0.5,1
				c0.1,2-0.6,3.9-5.3,3c-3.5-0.7-6.3-2.9-8.9,0.2c-1.6,2.4,0.9,6.1,3.8,5.4c3.7-1,4.8-2.9,8.7-2.3c1.4,0.2,2.5,0.9,2.5,0.9l-1,1
				C228,6.2,227.3,5.8,226.3,5.6L226.3,5.6z M226.6,9.6c0.9-0.9,2.2-1.4,3.5-1c1.2,0.3,2.5,1.2,2.5,3.4c0,1.6-0.5,6.1,2.4,7.3
				c-1.9,0.4-2.5-1-3.1-2c-1.3-2.4,0.9-7.3-3.3-7.5c-0.8,0.1-1.5,0.7-1.7,1.5c-0.1,0.5,0.1,1,0.5,1.3c0.4,0.3,0.9,0.4,1.4,0.3
				l0.1-0.2c-0.5-0.1-1.1-0.2-1.3-0.6c-0.2-0.3-0.2-0.6,0-0.8c0.1-0.4,0.5-0.5,0.9-0.5c0.6,0,1.3,0.4,1.5,1c0.2,0.4,0.1,1-0.1,1.4
				c-0.5,0.6-1.1,1-1.9,1c-0.7-0.1-1.4-0.4-1.8-1C225.5,11.9,225.9,10.5,226.6,9.6L226.6,9.6z M209.9,14c-0.3-1,0-3,0.2-3.7
				c3.9,2.1,10.6,3.7,14,3.2l0.7-0.1c0,0.1,0.1,0.2,0.2,0.3l0,0l0,0c0.6,0.9,1.5,1.4,2.7,1.6l0.1,0h0.1c0.8,0,1.6-0.2,2.2-0.7
				c0,0.9,0.1,1.8,0.3,2.6c-1-0.2-2.1-0.3-3.2-0.3l0,0.1c1.1,0.1,2.2,0.2,3.3,0.5c0.1,0.2,0.1,0.3,0.2,0.5l0.1,0.1
				c0.1,0.3,0.3,0.6,0.6,1c-0.1,0.1-0.2,0.1-0.4,0.2c-2.2-0.6-5.1-1.2-7.9-1.3l0,0.1c2.7,0.2,5.3,0.9,7.5,1.6
				c-0.2,0.2-0.5,0.3-0.7,0.5c-0.2,0.2-0.4,0.4-0.5,0.6c-2.3-0.7-5.5-1.5-8.7-1.5v0.1c3.1,0.2,6.2,1.1,8.5,1.9
				c-0.2,0.4-0.4,0.8-0.5,1.3c-2-0.5-6.5-1.9-11-1.9v0.1c4.4,0.2,9,1.7,10.9,2.4c0,0.3,0,0.7,0,1.1c-4-1.1-10-2.1-14.2-2
				c1.3-3.6,0-4.8-0.9-5.7l-2.4-0.4c2.9,1.3,2.7,5,1.4,6.3l0,0c-0.7,0.1-1.4,0.3-1.8,0.6l-0.2,0.1v1.5c-1.4,0.1-4.5,0.4-6.5,0.1
				c-2.8-0.3-1.7-1.1-3.3-1.8c-1.7-0.7-1.1,1.3-2.9,1.4c0,0-0.1,0-0.1,0c-0.4-0.1-0.9-0.2-1.3-0.3c-0.8-0.7-0.4-2.2-0.1-2.5
				c-2.1-0.1-1.6,2.4-2,1.7c-0.8-0.7-0.8-1.8-0.2-2.3c-2.2,0.6-1.4,2.4-1.9,2.1c-1.3-0.6-0.9-1.8-0.4-2.4c-0.9,0-1.6,1.1-1.8,2.1
				c-1.8-1.7,0.1-3.5,1.5-3.3c0,0,2.3,0.5,4.7-0.4c4.9-1.4,7.5,0.5,9.2,0.4c2.3,0.1,2.1,0.1,2.3-0.8c0.2-1.4,0.5-1.2,0.5-2.2l1,0.6
				c-0.1-0.9-0.1-2.7-0.1-3.3L209.9,14z M187.6,18.5C187.6,18.6,187.6,18.6,187.6,18.5C187.7,18.6,187.6,18.6,187.6,18.5
				c-0.9-0.7-1.3-3.1,0.1-4.5c1.4-1.5,1.6-1.8,1.6-1.8c0.5,0.9,1,3.7-1.3,5.7C187.5,18.3,187.5,18.4,187.6,18.5L187.6,18.5z
				 M186.2,11.5c0.6-0.7,2-2.6,2-2.6v0.2c0.1,0.3,1,1.5-1,3.7c-1,1.1-1,1.8-1.3,2.2c-0.3,0.4-0.5,0.5-0.6-0.5
				C185,13,185.4,12.8,186.2,11.5L186.2,11.5z M183.8,13.1c-0.8-1,0.5-3.4,1.4-4.5c0.9-1.1,1.5-1.3,2.2-2.7c0.5,2.6-0.9,3.6-1.4,4.4
				C185.1,11.5,184.9,12.1,183.8,13.1L183.8,13.1z M190.4,15.4c0.9,0.3,1.2,1.5,0.8,2.4c-0.7,0.3-1.6,0.3-2-0.1
				C189.7,16.9,190.4,16.1,190.4,15.4L190.4,15.4z M195,13.6c-1.6,0-3,0.7-3-0.5s1.4-2.1,3-2.1c1.6,0,3.1,0.9,3.1,2.1
				S196.6,13.6,195,13.6L195,13.6z M198.8,15.5l0.4,1.3c-0.5-0.3-1.5,0-1.5,0c-0.3-0.7-0.1-1.2-0.1-1.2L198.8,15.5z M196.1,17.3
				c0,0-0.9,0.2-1.3,0l0.1-1.5h0.9L196.1,17.3z M192.5,15.9l1.4-0.1c0.1,0.4-0.3,1.6-0.3,1.6l-1.2,0.3
				C192.7,17.3,192.5,15.9,192.5,15.9L192.5,15.9z M203.4,12.8c0.9,0.6,2.2,1.3,2.9,1.9c0.7,0.6,0.2,1.8,0.2,2
				c0,0.2-0.2,0.3-0.4,0.1s-1.2-0.9-2.2-1.4c-2.4-1.4-2.4-3.5-2.3-4.2c0,0-0.1,0-0.1,0.1c0,0,0.2-0.8,0.1-0.2c0,0,0,0.1,0,0.1
				C202,11.1,202.7,12.3,203.4,12.8L203.4,12.8z M202.2,6.7c0,0.2,2.6,1.7,4.3,3.5c1.4,1.5,1.2,2,1.1,2.8c0,0-0.9-0.4-2.1-1.1
				c-1.8-1-2.8-2.5-3.3-3.7C202.1,8.3,202,7.3,202.2,6.7L202.2,6.7z M204.6,17.8c0.3,0.2-0.1,0.1-0.5,0.2c-1,0.4-2.1-0.5-2.8-0.6
				c-0.8-0.2-1.6-1.5-1.4-3.5C200.5,13.6,200.8,15.9,204.6,17.8L204.6,17.8z M207,8.8c-0.6-0.8-2.2-2-2.9-2.5
				c-0.7-0.6-1.3-0.8-1.4-3.5c0.2,0.6,1.2,1.3,3.2,2.8c2.1,1.5,2.5,2.8,2.7,4.8C207.6,10.3,207.7,9.6,207,8.8L207,8.8z M208.3,5.6
				c-1-0.8-2.3-1.6-2.6-1.9c-1.1-1.1-2.7-1.1-2.7-3c0.6,0.4,1.5,0.8,2.8,1.2C207.2,2.4,208,3.4,208.3,5.6L208.3,5.6z M204.1-2
				c2.9,0.8,3.2,2,3,3.2c0,0-1.9-0.9-3.6-1.4C203.5-0.3,204.2-1.2,204.1-2L204.1-2z M197.9,3.6c0-0.4,0.3-0.7,0.7-0.7
				c0.4,0,0.7,0.3,0.7,0.7c0,0.4-0.3,0.7-0.7,0.7C198.2,4.3,197.9,3.9,197.9,3.6L197.9,3.6z M190.9-1.7c-0.1-0.6,0.2-0.9,0.5-1
				c1.2-0.4,2.4-0.5,3.6-0.5c1.2,0,2.4,0.1,3.6,0.5c0.3,0.2,0.6,0.5,0.5,1c2.8-3,4.4-3.2,4.3-0.6c0,2.6-1.5,1.3-1.8,0.3
				c0,0,0.1,5,0,5.9c0,0.9-0.3,2.7-2.7,2.8c1.1,0.1,1.8,0.5,2.1,0.8c0.1,0.3,0.2,0.8-0.2,0.9c-0.6-0.1-1.7-0.1-1.9-0.1
				c0.4,0.3,1,0.4,1.3,0.5c0.4,0.2,0.6,0.4,0.6,0.4s0,0.7-0.3,0.9c-0.3,0-1.5-0.6-2.1-0.6c0,0,0.9,0.4,1.5,1.3
				c0.3,0.4,0.4,0.9-0.2,0.9c0,0-0.5-0.2-0.9-0.5c-1.1-0.9-3-0.8-3.6-1.1c-0.3-0.2,0.2-1.1,0.7-1.1c1.6,0,1.7-1.5,1.7-2.1
				c0,0-0.4-2.1,1.2-1.9c1.6,0.2,1.7-1.3,1.7-2.9c0,0-0.3,0.1-2.1,0.1c-1.8,0-2.1-1-2.1-2.1c0-1-0.3,7.5-0.3,7.5
				c0.3,0.2-0.5,0.4-1.2,0.4c-0.7,0-1.5-0.2-1.2-0.4c0,0-0.2-6.7-0.3-7.5c0,1-0.3,2.1-2.1,2.1c-1.8,0-2.1-0.1-2.1-0.1
				c0.1,1.6,0.1,3,1.7,2.9c1.6-0.2,1.2,1.9,1.2,1.9c0,0.6,0.1,2.1,1.7,2.1c0.5,0,1,0.9,0.7,1.1c-0.6,0.3-2.4,0.2-3.6,1.1
				c-0.3,0.3-0.9,0.5-0.9,0.5c-0.7,0-0.5-0.5-0.2-0.9c0.6-0.9,1.5-1.3,1.5-1.3c-0.6,0-1.8,0.6-2.1,0.6c-0.3-0.3-0.3-0.9-0.3-0.9
				s0.2-0.2,0.6-0.4c0.3-0.1,0.9-0.2,1.3-0.5c-0.3,0-1.3,0.1-1.9,0.1c-0.4-0.1-0.3-0.6-0.2-0.9c0.3-0.3,1-0.7,2.1-0.8
				c-2.5-0.1-2.7-2-2.7-2.8c0-0.8,0-5.9,0-5.9c-0.3,1-1.7,2.3-1.8-0.3C186.5-4.9,188.1-4.7,190.9-1.7L190.9-1.7z M192,3.6
				c0,0.4-0.3,0.7-0.7,0.7c-0.4,0-0.7-0.3-0.7-0.7c0-0.4,0.3-0.7,0.7-0.7C191.7,2.8,192,3.2,192,3.6L192,3.6z M184.7,0.5
				c0.6-0.4,0.8-1.6,0.8-1c0.3,0.5,0.9,1.3,0.8,1.7c-0.1,0.4-1.6,2.9-2.7,2.1C183.4,2.5,184.1,0.9,184.7,0.5L184.7,0.5z M182.5,8.8
				c-0.1-1.9,2.3-4.4,4.6-6c0.6-0.4-0.1,2.2-1.5,3.5C184.1,7.6,183.6,8.6,182.5,8.8L182.5,8.8z M168.4,23.3c0-0.5,0.5-0.7,1.2-0.9
				c1.1-0.2,2.6-0.6,3.4-1.1l0.3-0.2c0.7-0.4,1.1-0.7,1.5-0.7c0.8,0,5-0.2,5.2-0.2c1.6-0.1,3.6-0.8,4.2-2.1l0.1,0.1v2
				c0.4-1.1,1.2-1.5,1.7-1.6c0,1.2,0.4,2.1,0.4,2.7c0.4-0.8,1.1-1.5,1.7-1.5c-0.1,0.7-0.1,1.7-0.1,2.6c-5.5-0.8-8.9-0.5-12.1,0.3
				c-0.1-0.2-0.2-0.4-0.4-0.5c-0.9,0.6-1.1,2.2-0.8,2.5c0,0-0.4,0.1-0.8,0.1c-1.4-0.4-0.6-1.7-0.3-2c-0.7,0.1-1.2,0.6-1.3,1.7
				c0,0.2,0,0.3-0.1,0.4h-0.4c-0.1,0-0.1,0-0.2,0c-1.4-0.4-0.6-1.7-0.4-2c-0.7,0.1-1.2,0.6-1.3,1.7c0,0.2-0.1,0.3-0.2,0.4h-0.4
				c-0.1,0-0.1,0-0.2,0C168.1,24.6,168.3,23.8,168.4,23.3L168.4,23.3z M177.4,30.3h-19.2l5.6-2.2l-6.8-2.7h20.4V30.3z M184.5,31.4
				l-6.8-1c1.9-0.5,4-0.8,6.8-0.7V31.4z M211.4,31.8c-3.6,0.2-7.5,0-12.4-1.2c-11.7-2.9-16.8-2.7-21.2-1.6v-5.7
				c4.4-1.1,9.4-1.3,21.2,1.6c4.4,1.1,8.1,1.2,11.4,0.8l0,4.5l5.6,0.6C215.9,30.8,214.4,31.7,211.4,31.8L211.4,31.8z M218.8,30.5
				l-7.5-0.7c1.6-0.6,4.6-0.7,7.6-0.4L218.8,30.5z M210.8,28.7v-5.5c3.2-1.7,12.2-0.3,17.9,1.3c0.4,1.5,1.1,4.3,3.9,6.6
				C227.8,29.2,214.7,26.6,210.8,28.7L210.8,28.7z M229.9,24.3c-0.5-4.3,3.4-4.7,5.4-4.5c0.6,2.7,1.8,5.1,3.5,7.2
				c-0.5-0.4-1.3-0.7-2.4-0.8c-1.2,0-2.1,0.4-2.7,1.2c-0.4,0.6-0.6,1.2-0.5,1.9C232,28.5,230.3,26.2,229.9,24.3L229.9,24.3z
				 M239.4,28.2c-0.8-0.4-3-1.2-4.2-0.2c-1,0.8-0.6,2.4,0.7,2.3c0.3,0,0.7-0.2,0.8-0.5c0,0,0.1-0.3-0.2-0.1
				c-0.1,0.2-0.7,0.5-1.1,0.1c-0.4-0.4-0.2-1.5,0.9-1.6c1.5-0.1,1.8,2,0.7,2.9c-1.4,0.9-2.9,0.1-3.4-1.1c-0.5-1.5,0.4-3.5,2.8-3.5
				C239,26.5,239.6,28.4,239.4,28.2L239.4,28.2z M256.1,33.7c-11.6,0-21-6.6-21-18.2v-2.1c0-11.6,9.4-17,21-17c11.6,0,21,5.4,21,17
				v2.1C277.1,27.1,267.7,33.7,256.1,33.7L256.1,33.7z M278.6,30c-0.5,1.3-1.9,2-3.4,1.1c-1.1-0.8-0.8-3,0.7-2.9
				c1.1,0.1,1.3,1.2,0.9,1.6c-0.4,0.3-1,0.1-1.1-0.1c-0.2-0.2-0.2,0.1-0.2,0.1c0,0.3,0.4,0.5,0.8,0.5c1.3,0.1,1.6-1.5,0.7-2.3
				c-1.2-1-3.4-0.2-4.2,0.2c-0.2,0.1,0.4-1.7,3-1.8C278.2,26.5,279.1,28.4,278.6,30L278.6,30z M279,29.4c0.1-0.7-0.1-1.4-0.5-1.9
				c-0.6-0.8-1.5-1.2-2.7-1.2c-1.1,0-1.9,0.4-2.4,0.8c1.7-2.1,2.9-4.5,3.5-7.2c2-0.3,5.9,0.1,5.4,4.5
				C281.9,26.2,280.2,28.5,279,29.4L279,29.4z M279.6,31c2.8-2.3,3.5-5.1,3.9-6.6c4.9-1.3,14.9-2.5,19.8-1.8l-0.1,0
				c0.1,0.6,0.2,2.3,0.3,3l-1.7,0.5l0.6,1.9C296.1,27.5,283.5,29.5,279.6,31L279.6,31z M297.3,29.5c3.1-0.3,6-0.3,7.6,0.4l-7.5,0.7
				L297.3,29.5z M300.6,30.7l4.4-0.5l1,0.7C304.7,31.7,301.3,31.2,300.6,30.7L300.6,30.7z M307.4,29.5c-0.3,0.4-0.7,0.5-1.2-0.2
				c-0.2-0.4-1.4-1.9-2.2-2.3c1.7-0.4,3.3-1.2,5.6,1.2C309,28.4,307.7,28.9,307.4,29.5L307.4,29.5z M321.6,22.5c1.8-0.1,3.9-0.9,6-2
				c0.9-0.5,3.5-0.3,4.3,0.2l-0.1-0.1l0.2,0.1c0,0,0,0-0.1,0l0.1,0.1c0.3,0.2,0.9,0.7,1.4,1.2c-2.1-0.1-11.2,1-13.6,1.4
				C319.8,23.3,321,22.5,321.6,22.5L321.6,22.5z M322.5,26.8C322.5,26.8,322.5,26.8,322.5,26.8c-0.5-0.3-1-0.7-1.6-1l0-0.7
				c0-0.3,0-0.3,0.3-0.3c0.4-0.1,0.7-0.1,1,0.1C322.7,25.3,322.7,26.2,322.5,26.8L322.5,26.8z M324.1,28.4l0-0.2
				c-0.2-0.3-0.5-0.6-0.9-0.9c0,0,0,0,0.1,0c0.8-0.6,1-1.6,0.6-2.2c-0.5-0.7-1.4-0.8-2.5-0.6l-2.2,0.3c-0.4-0.3-0.8-0.5-0.9-0.7
				c6.9-1.5,20.9-2.7,24.5-1.1v5.1C339.9,26.9,331.5,27.4,324.1,28.4L324.1,28.4z M330.8,31.3v-2.6c4.1-0.3,8-0.4,10.3,0.1
				C340.6,29.5,339.1,30.5,330.8,31.3L330.8,31.3z M356.2,30.3h-14.8c1.3-0.2,1.7-0.5,1.8-1v-3.9h14.3l-6.8,2.7L356.2,30.3z"/>
		</g>
	</g>
</g>
</svg>
